<svg xmlns="http://www.w3.org/2000/svg" viewBox="0 0 361.89 362.32"><path stroke="#ffffff" d="M166.57 359.85c-2.112-.906-4.065-1.949-4.34-2.318-.275-.37-.337-2.112-.138-3.872 1.174-10.405 1.152-10.85-.714-14.475-.976-1.895-2.388-4.453-3.138-5.685-1.65-2.708-3.1-7.718-2.71-9.364.338-1.435.567-.953 2.01 4.244.537 1.936 2.205 5.536 3.707 8 2.48 4.07 2.752 4.935 2.975 9.452.147 2.988-.031 5.304-.447 5.805-.806.971-.674 4.9.164 4.901.314.001.983.506 1.488 1.122.851 1.038.896 1.015.61-.32-.169-.791-.07-1.586.221-1.765.29-.18.718.54.95 1.6.567 2.579 1.885 2.54 1.369-.04-.327-1.637-.207-1.93.72-1.749.798.156 1.055.711.908 1.963-.161 1.368.012 1.662.8 1.36.553-.212 1.005-.931 1.005-1.598s.288-1.211.64-1.211.64.432.64.96.36.964.8.97c.533.007.48.216-.16.63-.82.53-.797.622.16.63.616.005 1.12.315 1.12.688 0 .372.304.49.675.26.449-.277.344-.921-.313-1.924-1.286-1.962-.076-2.818 1.468-1.038.708.816 1.43 1.103 1.958.776.683-.422.676-.586-.036-.89-.48-.204-.08-.207.888-.007 2.128.44 2.39-.754.32-1.459-.792-.27-1.656-.433-1.92-.363s-.49-.377-.5-.993c-.011-.616-.726-2.56-1.589-4.32-.862-1.76-1.285-3.296-.938-3.414.346-.117-.44-2.125-1.746-4.462-2.233-3.993-2.403-4.692-2.816-11.626-.241-4.058-.723-8.63-1.07-10.16-.462-2.033-.402-3.655.22-6.015 1.014-3.845.616-9.538-1.02-14.564-.63-1.936-1.294-5.76-1.475-8.498-.308-4.64-.224-5.085 1.222-6.531 1.523-1.523 2.17-3.348.912-2.57-.955.59-.783-.055.637-2.385.703-1.153 1.28-2.857 1.28-3.787.001-.96.447-1.862 1.03-2.085.611-.235.87-.799.642-1.395-.212-.551.09-2.45.669-4.222.882-2.697.954-4.223.443-9.393-.583-5.904-.23-12.362.46-8.414.538 3.085.156 18.27-.532 21.12-.878 3.638-3.006 10.896-3.565 12.16-2.228 5.033-2.424 10.863-.537 16 .793 2.159 1.083 5.367 1.16 12.8.055 5.456.284 13.232.507 17.28.383 6.941.532 7.566 2.626 10.976 1.29 2.103 2.22 4.456 2.22 5.621 0 2.992 1.523 6.073 3.804 7.698 1.116.794 2.099 1.341 2.183 1.215 2.27-3.396 2.125-6.882-.594-14.393-1.9-5.248-2.374-7.615-2.807-13.996-.446-6.572-.809-8.312-2.514-12.06-1.924-4.23-2.684-8.604-1.352-7.78.352.217.646 1.314.654 2.437.015 2.249 1.763 6.505 3.906 9.515 1.067 1.499 1.195 2.055.562 2.446-1.762 1.09.747 16.366 3.597 21.906 1.176 2.286 1.336 8.755.259 10.474-1.157 1.846-.367 5.825 1.258 6.34 1.46.464 6.443-.194 7.383-.974.847-.703 5.637-.646 6.783.08.576.365-.072.56-1.884.566-1.52.005-3.326.312-4.014.68-.689.369-3.228.729-5.644.8-3.967.118-4.527-.024-5.795-1.47-.771-.88-1.22-1.24-.996-.8.258.507-.056.8-.858.8-.695 0-1.38.345-1.52.766-.157.473-1.833.81-4.373.879-3.178.086-4.995-.265-7.958-1.535zm39.36 1.31c-.88-.137-1.874-.512-2.208-.834-.334-.322-1.126-.586-1.76-.586s-1.152-.242-1.152-.537c0-.658 2.522-.423 6.553.611 2.105.54 3.475.581 4.48.134.796-.354 2.743-.53 4.327-.392 5.656.494 7.04.209 7.04-1.454 0-.526-.619-.927-1.44-.934-.792-.007-2.88-.417-4.64-.912l-3.2-.9 10.24.224.592 2.395c.325 1.317.448 2.539.272 2.714-.4.4-16.936.807-19.104.47zm-15.626-7.34.213-1.92c.03-.264.291-.48.583-.48.29 0 .402.864.247 1.92-.324 2.21-1.284 2.651-1.043.48zm18.323 0c-6.5-3.474-11.042-6.374-11.566-7.386-.311-.602-1.214-2.94-2.006-5.197-1.258-3.584-1.415-5.123-1.24-12.16.36-14.412.286-22.053-.26-26.617-.418-3.492-.366-4.315.236-3.732 1.045 1.013 1.872 17.108 1.237 24.077-.753 8.261-.257 14.1 1.61 18.947 2.138 5.551 1.982 5.363 6.413 7.739 2.112 1.132 4.29 2.458 4.842 2.946.55.488 1.925 1.072 3.053 1.298 1.128.226 2.206.661 2.396.968.652 1.055-2.026.554-4.715-.883zm-22.11-1.546c-.612-.612-.526-1.494.145-1.494.314 0 .737.432.94.96.374.976-.308 1.31-1.085.534zm-21.526-1.575c-.011-.573.412-1.4.94-1.839 1.23-1.021 1.243.02.02 1.638-.79 1.044-.943 1.076-.96.2zm27.926-2.265c-.235-.235-.418-.883-.407-1.44.016-.833.14-.805.698.154.69 1.185.49 2.066-.291 1.285zm-24.747-.854c0-.352.288-.64.64-.64s.64.288.64.64-.288.64-.64.64-.64-.288-.64-.64zm4.16-.64c-.218-.352-.09-.64.282-.64.373 0 .678.288.678.64s-.127.64-.282.64c-.155 0-.46-.288-.678-.64zm23.147.214c-.235-.235-.418-.883-.407-1.44.016-.833.14-.805.698.154.69 1.185.49 2.066-.291 1.285zm53.74-4.568c-1.054-1.522-1.687-3.293-1.687-4.723 0-1.258-.75-3.925-1.666-5.926-.916-2.002-1.503-3.802-1.304-4s.703.386 1.12 1.3c.416.915 1.022 1.5 1.346 1.299.324-.2.536.025.471.5-.244 1.776.052 3.168.6 2.829.313-.193.96.15 1.44.762.79 1.007.767 1.03-.247.235-1.323-1.038-1.317-1.086-.408 3.247 1.188 5.659 3.238 6.854 7.373 4.299 2.05-1.268 2.691-1.1 1.665.436-.782 1.172-3.155 2.176-5.14 2.176-1.45 0-2.26-.553-3.563-2.434zm-153.69-4.007c-2.464-1.333-5.056-2.703-5.76-3.045-.704-.34-2.144-1.37-3.2-2.286s-2.136-1.666-2.4-1.667-.48-.837-.48-1.858c0-1.504.38-1.99 1.996-2.553 1.098-.383 2.61-.555 3.36-.383 2.014.462 5.147-2.517 7.746-7.367 1.226-2.288 2.235-3.699 2.243-3.135s-.705 2.379-1.585 4.034c-.88 1.655-1.615 3.354-1.633 3.775-.018.421-1.925 1.996-4.238 3.5-3.681 2.392-4.16 2.56-3.843 1.347.258-.987.165-1.188-.325-.698-.378.378-.762 1.369-.853 2.201-.223 2.028 1.995 2.214 3.607.303l1.187-1.407-.151 1.6c-.121 1.284.102 1.556 1.129 1.38.704-.122 1.066-.004.804.262s.17.804.96 1.196c.82.407 1.519 1.42 1.63 2.367.249 2.126 3.096 3.863 4.007 2.446.507-.787.687-.794 1.17-.044.458.71.717.614 1.303-.48.818-1.53 1.966-1.825 1.966-.506 0 .947-1.697 2.599-3.2 3.114-.528.18-2.976-.762-5.44-2.096zm-1.036-3.448c-.875-.875-5.044-2.214-5.044-1.62 0 .369.504.86 1.12 1.094.616.233 1.52.818 2.007 1.3.618.612 1.09.674 1.557.207.369-.369.531-.81.36-.98zm164.24 4.13c.218-.353.684-.64 1.036-.64s.462.287.244.64-.683.64-1.035.64-.462-.289-.245-.64zm4.16-.125c-1.68-.746-1.689-.742 2.767-1.47 2.04-.335 2.32-.555 1.682-1.323-.938-1.131.092-1.231 1.255-.123.685.652.765.55.432-.554-.343-1.139-.176-1.316 1.049-1.115 2.038.336 4.053-1.62 4.498-4.365.324-1.993.185-2.373-.98-2.677-.745-.195-1.659-.118-2.03.17-.37.29-1.248.594-1.952.675-2.116.245-10.17.003-11.2-.336-.9-.297-2.474-2.512-5.729-8.064-1.247-2.129-5.903-15.114-7.992-22.293-1.294-4.448-5.626-12.62-9.678-18.255-3.32-4.62-4.127-6.068-5.695-10.225-.266-.704-.612-2.942-.77-4.973-.204-2.651-.831-4.571-2.222-6.809-2.49-4.005-3.21-7.124-2.744-11.899.312-3.19.088-4.598-1.32-8.32-.93-2.464-2.246-6.587-2.923-9.163-1.365-5.201-2.732-8.439-4.78-11.316-.75-1.056-2.522-4.224-3.935-7.04-2.229-4.44-2.585-5.737-2.679-9.764-.093-4.01-1.335-9.056-2.59-10.525-.21-.247-.396 1.625-.412 4.16-.074 11.877-.43 17.729-1.08 17.729-.474 0-.536-2.41-.204-7.84.533-8.732.517-14.167-.055-18.256-.316-2.26-.54-2.606-1.283-1.989-1.607 1.334-1.567.173.056-1.577 2.16-2.33 2.668-5.48 1.309-8.109-.662-1.28-.937-2.796-.712-3.921.202-1.01.059-2.512-.318-3.339-.544-1.193-.422-2.02.59-4.003.701-1.375 1.48-4.225 1.73-6.333.25-2.108.974-5.037 1.609-6.508 4.124-9.554 2.382-15.76-3.253-11.595-2.995 2.214-8.68 2.309-14.793.247-2.702-.912-5.527-1.657-6.278-1.657s-1.204-.261-1.007-.58c.198-.32.95-.426 1.671-.237 1.16.303 1.265.129.902-1.5l-.412-1.843 1.178 1.815c.78 1.203 2.359 2.23 4.674 3.04 3.912 1.37 4.748 1.496 4.214.633-.2-.325-.002-.72.443-.877.444-.158.088-.211-.792-.12-.88.092-2.176-.069-2.88-.357l-1.28-.525 1.28-.132c.704-.073 2-.165 2.88-.205.88-.04 1.956-.303 2.392-.586.548-.354.675-.205.412.48-.21.547-.063.994.327.994s.709.288.709.64-.634.64-1.408.64c-1.05 0-1.224.184-.682.726 1.052 1.052 6.472-.434 8.134-2.23.723-.781 2.036-2.81 2.916-4.507s2.269-3.559 3.087-4.138c.818-.578 4.13-3.139 7.36-5.69 3.23-2.551 6.305-4.64 6.833-4.643 1.048-.005 8.096-2.761 8.761-3.427.227-.226 1.156-.413 2.065-.416.91-.003 2.518-.593 3.574-1.312 3.189-2.173 8.055-4.532 8.822-4.276.397.132-1.066 1.223-3.25 2.424-2.185 1.201-3.972 2.334-3.971 2.516 0 .183 2.089.409 4.64.502 2.551.093 5.956.604 7.566 1.134 2.726.898 3.123.878 5.788-.3 2.372-1.05 4.44-1.284 12.113-1.37 5.364-.06 10.192.196 11.488.611 4.352 1.393 16.694.436 20.63-1.6l1.992-1.03-1.518 1.833c-.835 1.008-2.108 1.88-2.83 1.936-7.277.574-16.694.458-20.19-.248-5.28-1.066-16.79-.454-21.912 1.165-3.445 1.09-3.82 1.096-6.08.104-3.06-1.345-14.667-1.475-18.781-.212-11.136 3.42-14.615 5.7-14.993 9.828-.22 2.393-.199 2.417 1.812 2.107 4.806-.74 9.685-.973 8.434-.402-1.025.468-.75.594 1.387.63 3.448.058 5.141-.533 3.946-1.376-.587-.415-.338-.492.801-.245 2.383.514 14.05.577 15.984.085 1.031-.263 2.902.081 5.048.927 1.876.74 3.874 1.281 4.442 1.204.568-.077 3.336.073 6.152.333 4.483.414 5.876.262 11.2-1.228 3.344-.935 9.476-2.032 13.627-2.438 5.39-.527 7.723-1.012 8.16-1.697.53-.832.692-.837 1.207-.037.801 1.246 6.831 1.685 8.146.593.968-.803 1.459-1.801 2.458-5.003l.489-1.567-2.053 1.727c-3.337 2.808-7.58 3.245-7.208.744.142-.956.044-1.046-.408-.375-.62.918-2.018.476-2.018-.638 0-.352.36-.423.8-.16.57.344.554.179-.055-.573-.47-.58-.67-1.356-.443-1.723.573-.926 1.494-.838 1.387.132-.05.44.199.892.55 1.005s1.102.624 1.667 1.135c.863.78 1.415.799 3.47.114 3.075-1.024 3.903-2.712 1.132-2.305-1.147.168-1.895-.008-1.895-.446 0-.52 2.779-.647 9.813-.452 6.857.19 9.814.061 9.814-.43 0-.385-.216-.725-.48-.754a41.749 41.749 0 0 1-5.139-.86c-1.154-.262-2.056-.236-2.004.058.252 1.433-.153 1.622-1.065.497-.554-.683-.825-.882-.602-.442.235.463.004.8-.55.8-.525 0-1.126-.543-1.337-1.206-.31-.977-1.013-1.207-3.699-1.207-1.87 0-3.419-.31-3.553-.713-.131-.393-.718-.723-1.305-.734-.914-.016-.93-.098-.106-.571 1.272-.731 13.2-1.028 15.826-.394 2.16.522 3.858 1.994 3.134 2.718-.232.232.447.787 1.51 1.233 2.206.928 2.538 2.515.65 3.114-.704.223-1.28.809-1.28 1.3 0 1.374-1.869 2.037-6.07 2.155-5.135.144-5.806 1.025-.78 1.025 3.808 0 3.97.065 3.97 1.6 0 1.527-.19 1.607-4.16 1.752-2.288.084-5.024.302-6.08.486-1.056.183-7.392.59-14.08.906-11.762.554-14.568.954-22.08 3.142-5.778 1.683-20.068.876-22.827-1.289-.455-.356-4.587-.284-10.56.185-5.397.423-13.1.799-17.117.834-5.226.046-7.38.291-7.573.864-.149.44-.67.8-1.158.8-1.304 0-6.045 7.623-6.045 9.72 0 .981-.84 4.452-1.867 7.712s-2.068 7.224-2.314 8.808-.92 4.176-1.5 5.76c-.791 2.166-.93 3.752-.563 6.4 1.074 7.74 1.24 10.788.644 11.852-.423.754-.352 2.019.217 3.911.463 1.538.734 2.797.603 2.797s.492 1.368 1.386 3.04c1.24 2.32 1.739 4.479 2.108 9.12.513 6.438 1.423 8.698 7.905 19.628 1.288 2.17 2.341 4.394 2.341 4.94 0 1.158 2.601 9.177 4.166 12.842.761 1.784 1.08 4.331 1.079 8.64 0 5.778.133 6.389 2.469 11.245 1.359 2.824 3.062 7.673 3.785 10.775 1.496 6.414 1.86 7.215 5.203 11.445 4.937 6.245 10.888 20.044 14.043 32.562 1.221 4.843 5.591 12.379 8.51 14.675 2.292 1.802 7.787 2.311 10.376.961 2.114-1.102 4.84-1.295 5.761-.407.335.322 1.328.682 2.208.8 2.326.311 2.265 3.553-.094 4.962-.932.557-3.446 2.373-5.587 4.037-4.345 3.376-6.054 3.972-8.399 2.93zm14.08-9.193c0-.55-.288-.82-.64-.603s-.64.667-.64.998c0 .331.289.602.64.602s.64-.449.64-.997zm-68.526-195.56c.694 1.122 1.877.395 2.645-1.626.33-.867.856-1.418 1.169-1.225.62.384 4.18-6.621 3.638-7.162-.182-.183-1.902.75-3.821 2.072-2.628 1.81-3.818 3.166-4.817 5.488-1.556 3.616-1.67 4.636-.322 2.85.778-1.028 1.07-1.106 1.509-.398zm3.465-4.618c.232-.645.422-1.406.422-1.691s.433-.686.962-.889c.8-.307.778-.075-.126 1.372-1.448 2.314-1.767 2.62-1.258 1.208zm99.486-6.988c.363-.44.862-1.877 1.108-3.194.246-1.317.709-2.233 1.028-2.036.32.197.387.672.15 1.055-.297.48.344.567 2.07.282 1.375-.227 3.027-.416 3.673-.42.653-.004 1.054-.361.904-.807-.156-.463-1.458-.829-3.093-.868-1.554-.038-3.73-.23-4.836-.425l-2.012-.356.338 2.519c.25 1.869.042 2.846-.808 3.785-.964 1.065-.99 1.265-.164 1.265.54 0 1.278-.36 1.642-.8zm6.905-.56c.198-.32-.943-.503-2.563-.409-2.71.157-3.377.466-2.626 1.217.49.49 4.8-.18 5.189-.807zm4.944-4.656c.07-.317-.511-.673-1.29-.792-1.058-.162-1.322.033-1.04.767.391 1.02 2.108 1.038 2.33.025zm-4.28-6.082c.445.369 1.618.562 2.608.428l1.798-.243-1.92-.82c-3.32-1.417-6.08-1.655-6.08-.524 0 1.172 1.35 1.808 2.193 1.033.33-.303.952-.247 1.401.126zm-5.666-1.141c-.612-.16-1.764-.166-2.56-.013s-.296.284 1.112.291c1.408.007 2.06-.118 1.448-.278zm-62.567 226.32c0-.373.288-.5.64-.283s.64.523.64.678c0 .155-.288.282-.64.282s-.64-.305-.64-.677zm-152.82-.752c-1.741-.839-1.545-2.01.385-2.295 1.07-.157 1.293.04.977.865-.235.611-.028 1.31.483 1.634 1.25.792-.084.645-1.845-.204zm155.06.15c-.218-.353-.09-.64.282-.64.373 0 .678.287.678.64s-.127.64-.282.64c-.156 0-.46-.289-.678-.64zm-150.21-1.12c-.427-1.578.567-5.681 1.744-7.2.409-.529 1.222-3.207 1.808-5.952 1.089-5.107 2.775-9.114 4.607-10.946.566-.566 2.036-2.972 3.265-5.346 1.23-2.374 3.44-5.613 4.913-7.197 2.741-2.948 3.638-4.284 5.69-8.48 1.382-2.827 1.986-3.111 1.367-.642-.615 2.448-3.989 7.563-7.496 11.362-1.625 1.76-2.957 3.45-2.96 3.757-.008.56-4.422 8.129-5.088 8.723-1.393 1.242-3.24 6.027-3.246 8.407-.004 1.65-.68 4.233-1.653 6.313-.906 1.936-1.853 4.672-2.104 6.08-.378 2.116-.525 2.31-.847 1.12zm-2.75-.16c.218-.352.667-.64.998-.64.331 0 .602.288.602.64s-.449.64-.997.64c-.55 0-.82-.288-.603-.64zm169.42-3.214c-.641-1.027-.565-1.336.465-1.887 1.7-.91 1.955-.84 1.955.542 0 1.952-1.515 2.794-2.42 1.345zm-16.78-.627c0-.352.305-.64.678-.64.373 0 .5.288.282.64s-.522.64-.677.64c-.156 0-.283-.288-.283-.64zm-70.613-.426c-.234-.235-.426-.724-.426-1.088 0-.401.298-.363.757.096.417.416.609.906.427 1.088-.182.182-.523.138-.758-.096zm72.282-1.226c-.6-1.565-.47-1.772.572-.908 1.064.883 1.274 1.92.388 1.92-.314 0-.746-.455-.96-1.012zm1.295-1.242c-.305-.796-.141-.85.891-.298 1.484.794 1.625 1.272.374 1.272-.49 0-1.06-.438-1.265-.974zm-9.63-.22c-.276-.446-.328-.984-.117-1.195.573-.573 1.197.27.888 1.198-.217.65-.368.65-.771-.003zm-64.323-1.739c.03-.745.182-.897.387-.387.185.462.162 1.014-.05 1.227-.214.213-.365-.165-.337-.84zm57.034-4.475c-5.552-5.718-7.75-8.986-9.115-13.553-.508-1.701-1.58-3.308-2.861-4.284-2.877-2.194-5.744-6.942-7.365-12.194-.76-2.464-2.22-6.986-3.243-10.048-1.023-3.063-1.865-6.23-1.872-7.04-.006-.81-.87-2.74-1.92-4.288-1.05-1.55-1.9-3.277-1.892-3.84.01-.564 1.017.546 2.24 2.466 1.223 1.92 2.224 3.887 2.224 4.373 0 .485.724 2.98 1.61 5.545s2.202 6.933 2.928 9.707c.726 2.775 2.072 6.428 2.991 8.119 1.815 3.339 5.977 7.486 7.513 7.486.527 0 .958.288.958.64s-.26.64-.579.64c-.576 0 1.15 5.104 2.794 8.26.476.913 2.773 3.532 5.107 5.82 3.436 3.369 6.813 7.707 5.974 7.673-.097-.004-2.568-2.471-5.492-5.482zm-56.923.048c.007-1.408.138-1.908.291-1.112.153.796.148 1.948-.013 2.56-.16.612-.285-.04-.278-1.448zm-27.964-2.569c-.549-1.313-.997-2.91-.997-3.551s-.255-1.321-.567-1.514c-1.664-1.029-1.922-14.051-.407-20.528 1.573-6.72 2.266-10.5 2.638-14.398.374-3.908 2.04-12.704 2.57-13.56.187-.302-.085-1.767-.605-3.255-1.322-3.782-2.99-11.472-2.99-13.783 0-1.064-.282-2.03-.627-2.148-.905-.308-.008-5.067.918-4.862 1.65.366 14.273-12.398 16.948-17.137 1.125-1.993 2.198-3.472 2.384-3.285.688.688-5.565 9.392-9.122 12.697a284.986 284.986 0 0 0-6.845 6.61l-3.172 3.195.37 3.844c.39 4.067 2.308 12.322 3.932 16.924.746 2.113.775 2.592.128 2.055-.681-.566-1.048.683-1.907 6.482-.585 3.95-1.344 9.055-1.687 11.343s-1.213 6.996-1.932 10.462c-.72 3.466-1.303 7.498-1.297 8.96.014 3.26 1.519 10.554 2.952 14.305 1.308 3.427.696 4.45-.685 1.144zm-54.458-9.59c.166-2.844.904-6.826 1.66-8.956.748-2.11 2.039-6.508 2.867-9.774 2.445-9.638 5.847-15.365 15.68-26.39 1.727-1.937 4.254-5.249 5.616-7.36s3.549-4.993 4.86-6.4c2.895-3.11 4.217-5.922 4.217-8.974 0-3.521 1.9-11.082 3.58-14.239.828-1.558 1.68-3.885 1.891-5.17.67-4.053 2.371-7.507 9.261-18.792 1.78-2.915 3.95-8.979 5.106-14.265.308-1.408.881-3.712 1.274-5.12.392-1.408.8-4.144.908-6.08.106-1.936.807-5.78 1.557-8.542l1.362-5.021-1.544-3.299c-.849-1.814-1.733-4.45-1.963-5.858-.23-1.408-.673-3.424-.983-4.48-.558-1.903-.698-2.515-1.807-7.902-.315-1.53-1.124-3.546-1.798-4.48-.675-.934-1.568-2.868-1.984-4.297-.417-1.429-1.498-3.293-2.403-4.143-1.537-1.445-2.133-1.549-9.13-1.596-5.932-.04-8.284-.335-11.327-1.42-3.26-1.162-5.045-1.346-11.84-1.222-4.662.086-8.565.462-9.356.9-2.197 1.222-19.715.635-23.124-.775-3.693-1.527-3.455-2.38.32-1.145 3.911 1.28 19.97 1.53 23.066.36 3.145-1.19 20.2-.502 22.34.9 1.22.8 3.577 1.084 10.245 1.232 7.42.164 8.782.355 9.502 1.33.63.852 1.026.955 1.58.41.558-.55.31-1.379-1.01-3.374-.963-1.454-1.586-2.809-1.385-3.01.201-.201 1.146.813 2.099 2.253 1.179 1.781 2.195 2.619 3.18 2.619 1.31 0 2.342 1.194 2.487 2.88.03.352.416.676.856.72s1.198.116 1.685.16c.487.044 1.04.667 1.227 1.386.277 1.058.109 1.232-.885.917-1.381-.439-1.618.33-.46 1.489 1.043 1.042 3.288 1.016 2.697-.032-.338-.598-.227-.592.437.026.722.672.732.923.055 1.342-1.379.852 2.145 2.693 5.896 3.08 2.618.27 3.913.052 5.998-1.012 1.462-.746 3.246-1.356 3.964-1.356s1.234-.216 1.146-.48c-.198-.595.383-.802 2.24-.797 1.305.004 1.265.096-.434.982-4.657 2.428-11.201 4.203-13.95 3.783-1.505-.23-3.402-.495-4.217-.59-.815-.094-1.911-.785-2.436-1.535-1.193-1.703-2.803-1.773-2.803-.121 0 .683-.288 1.42-.64 1.638s-.637 1.17-.634 2.117c.01 3.23 3.053 15.153 4.815 18.872 1.483 3.131 1.643 3.96 1.027 5.313-.402.882-1.181 3.786-1.732 6.454-1.189 5.753-.6 7.99 2.534 9.617 1.095.568 1.648 1.149 1.23 1.29-.42.141-1.514-.236-2.434-.838-1.032-.677-1.9-.868-2.268-.5-.78.78-4.458 15.265-4.458 17.556 0 .974-.267 1.868-.593 1.985-.326.117-2.494 3.093-4.818 6.613-3.084 4.672-4.721 7.98-6.062 12.246-1.01 3.215-2.27 6.815-2.8 8-1.835 4.101-2.99 8.43-3.377 12.643-.484 5.289-1.371 7.244-5.115 11.272-1.636 1.76-3.354 4.077-3.818 5.149-.464 1.071-2.04 3.231-3.504 4.8-6.23 6.68-15.024 18.648-14.262 19.41.217.216-.078.915-.654 1.552-.577.637-1.779 3.97-2.672 7.405-.892 3.436-2.076 7.308-2.63 8.605-.554 1.298-1.558 5.24-2.231 8.76l-1.224 6.4zm52.972-176.61c.167-.875.078-1.451-.198-1.28-.276.17-.594-.32-.707-1.09-.114-.77-.61-1.532-1.103-1.695-.646-.213-.797.087-.54 1.07.197.752.096 1.206-.223 1.009-.877-.542-.7.276.497 2.303 1.222 2.068 1.834 1.983 2.274-.318zm.809-4.19c-.218-.351-.684-.64-1.036-.64s-.462.289-.244.64.683.64 1.035.64.462-.287.245-.64zm21.524 172.8c-.036-1.935.39-5.391.947-7.68.557-2.287 1.158-5.167 1.337-6.4.18-1.231.602-2.671.94-3.2.719-1.12.583-.005-1.36 11.2-1.744 10.055-1.788 10.2-1.864 6.08zm18.476-7.65c0-2.095.261-4.47.581-5.28 2.49-6.298 3.473-10.73 3.33-15.017-.12-3.581.187-5.477 1.4-8.64.855-2.23 2.439-7.22 3.52-11.093 1.32-4.722 1.981-6.341 2.008-4.918.023 1.167.376 2.751.786 3.52.647 1.215.618 1.294-.22.603-.802-.661-1.089-.522-1.705.83-.407.894-.74 2.206-.74 2.917 0 .71-.275 1.804-.61 2.43-.335.627-.74 1.832-.9 2.679-.16.846-.78 2.963-1.378 4.703-.696 2.025-1.061 4.952-1.015 8.128.045 3.059-.28 5.774-.846 7.076-1.883 4.329-3.093 9.253-3.075 12.512.01 1.848-.24 3.36-.558 3.36s-.578-1.715-.578-3.81zm-29.653-7.496c-.235-.235-.427-.846-.427-1.358 0-.756.182-.782.96-.135.528.438.96 1.049.96 1.358 0 .663-.885.743-1.493.135zm24.533-.891c0-.373.288-.5.64-.282s.64.522.64.677c0 .156-.288.283-.64.283s-.64-.305-.64-.678zm3.84-1.28c0-.373.288-.5.64-.282s.64.522.64.677c0 .156-.288.283-.64.283s-.64-.305-.64-.678zm-64.634-.922c0-.352.37-1.36.822-2.24 1.526-2.974 3.284-7.995 3.104-8.865-.098-.475.078-.706.39-.513.816.505 10.654-8.89 10.155-9.698-.23-.37 1.133-2.139 3.026-3.93 2.018-1.908 4.267-4.906 5.436-7.245 1.097-2.194 2-3.54 2.008-2.99.02 1.58-2.897 7.191-4.472 8.6-.786.705-3.008 3.373-4.936 5.93s-4.772 5.687-6.32 6.954c-1.843 1.51-3.522 3.768-4.874 6.55-2.504 5.16-4.34 8.31-4.339 7.447zm51.509-19.4c-.004-12.801.147-16.198.602-13.56.666 3.862.535 27.583-.162 29.466-.24.646-.437-6.512-.44-15.906zm9.165 12.243c.462-.185 1.014-.163 1.227.05.212.213-.166.364-.84.336-.746-.03-.898-.182-.387-.386zm-2.44-5.323c0-.352.288-.64.64-.64s.64.288.64.64-.288.64-.64.64-.64-.288-.64-.64zm40.314-.327c-.658-.793-.563-.953.567-.953.747 0 1.359.27 1.359.602 0 1.109-1.127 1.314-1.926.35zm-93.434-2.253c0-.341.432-.62.96-.62s.96.113.96.251-.432.418-.96.62-.96.09-.96-.251zm91.2.02c.217-.352.666-.64.998-.64.33 0 .602.288.602.64s-.45.64-.998.64c-.549 0-.82-.288-.602-.64zm-7.604-3.925c-1.376-1.965-.723-2.38.794-.507 1.097 1.355 1.34 1.414 2.36.571 1.003-.828 1.1-.825.824.02-.511 1.562-2.86 1.512-3.978-.084zm-80.517-.352c.462-.185 1.014-.163 1.227.05.213.213-.165.364-.84.336-.746-.03-.897-.182-.387-.386zm73.56.067c-.264-.266-.48-.87-.48-1.344s-.613-2.164-1.362-3.758-1.185-3.074-.969-3.29c.554-.554 3.75 6.624 3.498 7.86-.113.559-.423.799-.687.532zm4.143-4.074c-1.134-1.036-2.063-2.1-2.063-2.366s1.008.496 2.24 1.69c2.077 2.012 2.518 2.56 2.063 2.56-.098 0-1.106-.848-2.24-1.884zm-14.543-14.264c-6.187-7.57-10.587-14.967-11.142-18.732-.413-2.798.15-2.559-7.418-3.144-4.01-.31-4.16-.343-4.16-.927 0-.304.722-.414 1.604-.245.882.169 2.065-.077 2.63-.545.859-.713 1.143-.695 1.755.11 1.197 1.574 3.453 1.314 4.935-.57l1.353-1.72-.436 2.327c-.27 1.448-.172 2.49.262 2.758.383.237.697.996.697 1.687 0 2.611 5.322 12.119 9.656 17.25 2.433 2.881 4.424 5.35 4.424 5.489 0 .903-1.38-.337-4.16-3.738zm-24 2.098c0-1.01 1.45-3.87 1.963-3.87.262 0 .168 1.008-.21 2.24-.629 2.047-1.753 3.093-1.753 1.63zm3.941-2.59c0-.88.145-1.24.323-.8s.177 1.16 0 1.6-.323.08-.323-.8zm41.013-.631c-1.113-1.783-.993-2.064.486-1.14.704.439 1.28 1.161 1.28 1.605 0 1.202-.867.974-1.766-.465zm-15.249-2.57c.196-.88.466-6.001.601-11.382.136-5.38.463-9.989.727-10.24.723-.688-.33 21.843-1.056 22.583-.412.42-.506.09-.272-.96zm-26.665-2.216c1.268-3.42 1.73-3.316 1.127.254-.263 1.557-.79 2.603-1.313 2.603-.71 0-.675-.535.186-2.857zm1.45-5.585c-.005-.948.278-1.9.63-2.118.817-.505.817 1.615 0 2.88-.485.75-.623.585-.63-.762zm-26.84-4.731c.031-.746.183-.898.387-.387.185.462.162 1.014-.05 1.227-.213.212-.364-.166-.336-.84zm.037-7.787c-.048-3.608.131-6.56.398-6.56.266 0 .399 2.376.294 5.28-.29 8.027-.595 8.59-.692 1.28zm27.483 5.227c.03-.746.183-.898.387-.387.185.462.162 1.014-.05 1.227-.213.212-.365-.166-.337-.84zm14.03-.945c0-.373.288-.5.64-.282s.64.522.64.678c0 .155-.288.282-.64.282s-.64-.305-.64-.678zm-9.6-4.314c0-.282.33-.842.733-1.244.55-.55.531-1.217-.073-2.677-.75-1.809-.461-4.542.39-3.691.534.535.888 5.66.482 7.004-.336 1.113-1.532 1.587-1.532.608zm-10.226-2.38c-.008-.358.706-1.71 1.586-3.005s1.6-2.675 1.6-3.067.293-.53.65-.31c.414.256.273 1.041-.388 2.16-1.593 2.697-3.432 4.949-3.448 4.223zm30.854-1.588c0-1.232.132-1.736.293-1.12.16.616.16 1.624 0 2.24-.161.616-.293.112-.293-1.12zm-25.367-2.08c.193-3.987.33-4.244.935-1.76.555 2.275.262 4.48-.595 4.48-.26 0-.412-1.224-.34-2.72zm25.005-.907c-.235-.234-.408-1.026-.386-1.76.037-1.226.09-1.21.654.2.627 1.567.497 2.325-.268 1.56zm-51.428-3.733c.004-2.112.123-2.899.266-1.749.142 1.15.14 2.879-.007 3.84-.146.962-.263.021-.26-2.091zm33.722.32c0-.352-.648-.666-1.44-.698-1.127-.045-.996-.186.602-.648 1.511-.437 2.251-1.17 2.848-2.822.444-1.228 1.037-2.232 1.319-2.232.702 0 .652.343-.426 2.924-1.223 2.928-.049 2.183 1.574-.998.933-1.828 1.055-2.55.471-2.786-.602-.244-.595-.33.032-.37 1.457-.09 1.52 1.628.144 3.96-1.448 2.454-2.644 3.205-4.171 2.619-.692-.266-.855-.078-.572.66.218.567.221 1.031.007 1.031-.213 0-.388-.288-.388-.64zm-10.88-.462c-1.628-.611-4.48-2.792-4.48-3.426 0-.33 1.172.249 2.605 1.287 2.496 1.808 4.424 2.004 4.445.453.007-.524.143-.532.48-.028.259.387.902.869 1.43 1.07.658.25.524.38-.427.416-.764.027-1.772.171-2.24.32-.47.147-1.285.106-1.813-.092zm6.67-.666c.25-.445.004-1.713-.547-2.818-1.155-2.315-1.182-2.454-.491-2.454.28 0 .886 1.037 1.344 2.304.665 1.839.672 2.452.035 3.04-.609.561-.69.544-.342-.072zm23.73-3.352c.218-.352.523-.64.678-.64.155 0 .282.288.282.64s-.305.64-.678.64c-.372 0-.5-.288-.282-.64zm-54.366-1.693c-.234-.934-.122-1.995.25-2.368.475-.473.676.032.676 1.693 0 2.787-.335 3.031-.926.675zm34.846 1.451c0-.133.439-.605.975-1.05.815-.677.908-.637.571.241-.344.898-1.546 1.526-1.546.81zm-5.12-2.88c0-.309.48-.957 1.065-1.44.965-.796.993-.744.297.562-.793 1.49-1.362 1.856-1.362.878zm-1.014-21.668c.245-.772.024-1.584-.564-2.072-.532-.442-.81-1.059-.617-1.37.483-.782 3.475-.72 3.475.072 0 .352-.288.64-.64.64s-.64.703-.64 1.562c0 .86-.319 1.76-.708 2-.47.29-.573.009-.306-.832zm-2.165-6.311c-.011-.385.555-1.222 1.26-1.86s1.3-1.617 1.324-2.178c.034-.76.186-.694.595.259.789 1.835.75 2.383-.147 2.084-.433-.144-1.288.336-1.899 1.067s-1.121 1.014-1.133.628zm-8.608-5.933c-.276-.446-.328-.984-.117-1.195.573-.573 1.197.27.888 1.197-.217.65-.368.65-.77-.003zm10.507-1.244c0-.344.456-.8 1.014-1.014.623-.24.916-.096.76.371-.32.957-1.774 1.484-1.774.643zm13.76-1.402c.218-.352.523-.64.678-.64.155 0 .282.288.282.64s-.305.64-.678.64c-.372 0-.5-.288-.282-.64zm-2.24-.64c0-.352.288-.64.64-.64s.64.288.64.64-.288.64-.64.64-.64-.288-.64-.64zm-24.64-.64c.218-.352.523-.64.678-.64.155 0 .282.288.282.64s-.305.64-.678.64c-.372 0-.5-.288-.282-.64zm15.7.025c-.519-.328-.776-.762-.572-.966.204-.203.735.069 1.18.605.923 1.113.746 1.218-.609.36zm11.25-1.039c-.24-.623-.097-.916.37-.76.957.32 1.484 1.774.643 1.774-.344 0-.8-.456-1.014-1.014zm-13.189-22.027c0-.352.288-.64.64-.64s.64.288.64.64-.288.64-.64.64-.64-.288-.64-.64zm-16.928-5.688c.335-.312 1.328-.76 2.208-.993 1.538-.408 1.552-.386.358.568-1.31 1.047-3.645 1.434-2.566.425zm33.822-.818c-.181-.294.696-.534 1.948-.534 1.253 0 2.278.112 2.278.248 0 .525-3.914.79-4.226.286zm-18.164-1.616c.005-.285.29-.95.63-1.478.535-.827.622-.81.63.123.006.595-.278 1.26-.63 1.477s-.635.163-.63-.122zm-44.937-8.218c-.187-.187-1.01-.469-1.83-.627-.82-.158-1.94-.766-2.487-1.35-.91-.973-.886-1.022.284-.567.704.273 2.431.913 3.838 1.422 3.08 1.114 3.513 1.462 1.815 1.462-.704 0-1.433-.153-1.62-.34zm3.807-.084c.44-.177 1.16-.177 1.6 0s.08.323-.8.323-1.24-.145-.8-.323zm70.56-3.096c.827-.88 1.647-1.6 1.823-1.6s-.356.72-1.183 1.6-1.647 1.6-1.823 1.6.356-.72 1.183-1.6zm-154.65-.534c-.621-.348-4.312-.802-8.202-1.009-5.692-.303-7.072-.564-7.072-1.337 0-.528.652-1.052 1.45-1.165 2.705-.384.828-1.242-2.017-.921-2.368.267-2.938.11-3.516-.97-1.06-1.981.385-2.695 5.615-2.775 3.954-.06 4.439-.187 3.455-.907-.649-.474-.9-1.068-.578-1.37.311-.292.695-.172.852.268s.758.8 1.335.8c1.675 0-1.043-1.662-3.643-2.228-2.093-.456-2.153-.415-1.748 1.198.391 1.558.271 1.67-1.78 1.67-2.983 0-4.225-.56-4.225-1.904 0-1.34 2.566-1.966 9.44-2.303 3.778-.186 4.64-.052 4.64.722 0 .71-.444.845-1.76.535-1.395-.329-1.604-.248-1.007.389.414.441 2.235.874 4.047.961 1.812.087 3.619.483 4.015.88.397.396 1.191.72 1.766.72s1.046.426 1.046.946c0 .67-.434.836-1.494.57-2.407-.604-1.725.177 1.547 1.773 1.91.931 4.05 1.446 5.76 1.386 2.318-.083 2.72.09 2.72 1.172 0 .838-.266 1.105-.784.784-.431-.266-1.367-.518-2.08-.56-.713-.04-2.211-.128-3.33-.192-1.12-.065-2.475-.56-3.013-1.098-.64-.639-1.544-.837-2.606-.57-.988.248-1.627.137-1.627-.281 0-.38-.432-.524-.96-.321-2.052.787-.203 3.266 2.88 3.86 3.053.588 12.942.365 13.394-.302.701-1.035 2.517-1.324 3.194-.51.374.452.611.942.526 1.09-.085.148.15-.072.52-.49.514-.577.824-.521 1.3.233.343.545 1.413.99 2.377.99.964 0 1.872.193 2.017.43.427.69-21.21.532-22.455-.164zm-5.354-2.957c0-.876-4.53-1.62-5.03-.827-.225.358-.986.794-1.69.97s.52.353 2.72.394c2.2.04 4-.2 4-.537zm-6.836-3.62c-.203-.53-.787-.802-1.299-.605-.511.196-1.643.356-2.515.356-2.618 0-1.17.996 1.61 1.107 2.05.082 2.498-.092 2.204-.859zm9.396-1.81c0-.156-.288-.461-.64-.679s-.64-.09-.64.283c0 .372.288.677.64.677s.64-.127.64-.282zm-12.8-2.279c0-.352-.27-.64-.602-.64s-.78.288-.998.64.054.64.602.64c.55 0 .998-.288.998-.64zm86.92 11.083c.462-.185 1.014-.162 1.227.05.212.214-.166.365-.84.337-.746-.03-.897-.182-.387-.387zm115.8.014c.44-.178 1.16-.178 1.6 0s.08.322-.8.322-1.24-.145-.8-.322zm2.72-.276c0-.32.576-.58 1.28-.58s1.28.11 1.28.245-.576.396-1.28.58-1.28.074-1.28-.245zm-127.04-.535c-2.453-.592-4.688-1.796-6.36-3.426-1.366-1.332-.141-.896 1.566.558.532.453 2.98 1.396 5.44 2.097 4.162 1.186 3.641 1.806-.646.771zm94.464-2.416c.466-.776.985-1.273 1.153-1.105.169.168-.212.803-.847 1.41-1.102 1.056-1.116 1.043-.306-.305zm-145.66-.83c.218-.351.684-.64 1.036-.64s.462.289.244.64-.684.64-1.035.64-.462-.287-.245-.64zm98.56 0c-.217-.351-.09-.64.282-.64.373 0 .678.289.678.64s-.127.64-.282.64c-.155 0-.46-.287-.678-.64zm-21.963-.778c-.416-.417-.757-1.196-.757-1.732 0-.669.321-.515 1.025.49 1.123 1.603.94 2.45-.268 1.242zm-74.997-.501-2.24-.472 2.758-.084c1.694-.052 2.605.162 2.362.556-.217.352-.45.602-.518.555-.067-.046-1.13-.296-2.362-.555zm111.79.213c-.235-.235-.422-.883-.417-1.44.01-.891.092-.898.689-.053.51.722.76.762 1.003.16.179-.44.591-.8.917-.8.326 0 .232.576-.207 1.28-.846 1.355-1.292 1.546-1.985.853zm-70.935-1.723 2.132-.772-3.718-1.54c-3.059-1.269-5.024-1.573-11.092-1.719-4.056-.097-8.585-.308-10.064-.468-1.48-.16-4.634.115-7.01.612-4.867 1.019-14.414.641-16.54-.654-.704-.429-2.04-1.27-2.968-1.87-1.483-.96-1.801-.978-2.627-.153-.743.743-1.51.811-3.676.324-1.506-.338-2.89-.463-3.074-.278-.185.185-.654.074-1.041-.248-.388-.321-2.08-.746-3.762-.944-7.164-.842-7.366-3.175-.298-3.446 3.97-.152 5.238.05 6.988 1.117 1.176.717 2.987 1.305 4.024 1.306 1.037.001 3.026.795 4.42 1.763 2.239 1.553 3.295 1.8 8.995 2.1 3.553.189 8.043.037 9.98-.335 3.708-.714 4.418-.704 10.56.137 2.111.29 5.686.316 7.943.06 4.103-.467 5.913-.08 12.55 2.683 1.678.699 2.294.632 4.651-.507 2.903-1.403 12.178-2.064 15.663-1.116 2.107.573 4.316-.742 2.902-1.728-.555-.386-.368-.449.563-.188.766.215 2.457-.055 3.758-.598 1.3-.544 3.554-.962 5.007-.93l2.642.057-2.24.586c-1.232.323-3.32.884-4.639 1.248l-2.398.661 2.172 3.47-1.741-1.564c-1.65-1.483-1.798-1.507-2.848-.457-1.377 1.377-.54 2.039 3.32 2.623 3.824.578 5.17 1.615 2.112 1.628-1.331.005-3.78-.67-5.44-1.499-3.961-1.98-5.684-2.356-11.016-2.406-4.417-.04-9.935 1.308-12.466 3.047-.694.477-1.846.846-2.56.819-.901-.034-.646-.285.835-.82zm-54.612-8.045c-1.056-.255-2.593-.824-3.415-1.266-1.69-.908-2.363-.583-1.804.873.28.73 1.26.97 3.76.922 2.81-.054 3.056-.143 1.46-.529zm-6.72-1.325c0-.352-.288-.64-.64-.64s-.64.288-.64.64.288.64.64.64.64-.288.64-.64zm-2.733-.387c-.213-.213-.765-.235-1.227-.05-.51.204-.359.355.387.386.674.028 1.052-.123.84-.336zm116.67 8.995c.017-1.655.104-1.743.706-.707.492.847.487 1.382-.02 1.888-.514.515-.7.195-.686-1.181zm4.114.31c-.689-1.115.096-1.352.973-.294.505.608.554.976.13.976-.375 0-.871-.308-1.103-.683zm10.586-2.582c0-.528-.341-1.301-.758-1.718-.865-.865-1.223-3.452-.408-2.948 1.245.77 2.554 4.238 1.86 4.931-.499.5-.694.425-.694-.265zm24.96-.576c0-.352.305-.64.678-.64.373 0 .5.288.282.64s-.523.64-.678.64c-.155 0-.282-.288-.282-.64zm29.432-.363c-3.598-2.012-13.252-3.724-15.756-2.794-.75.279-3.043.28-5.095 0-4.42-.6-7.509.112-8.949 2.062-.703.952-1.146 1.153-1.352.615-.169-.44-1.274-.8-2.456-.8-2.413 0-3.538-1.062-1.823-1.72.617-.237 1.225-.122 1.35.255.161.482.87.49 2.384.025 1.402-.43 2.038-.965 1.821-1.53-.449-1.171-1.476-1.108-1.476.09 0 .528-.32.96-.71.96-.43 0-.556-.609-.32-1.55.334-1.333.084-1.652-1.78-2.267-2.173-.717-6.79-4.67-6.79-5.814 0-1.223-1.925-.561-3.855 1.326-1.09 1.064-2.251 1.767-2.583 1.562-.933-.577-.71-1.579.268-1.203.988.38 3.28-3.835 2.645-4.863-.216-.348.345-.914 1.246-1.257 1.09-.414 1.642-1.11 1.648-2.078.007-1.084.154-1.23.572-.57.888 1.403 1.824-1.033 1.633-4.25-.089-1.497.097-2.882.412-3.077.316-.195.578-1.562.583-3.037.005-1.475.277-3.105.604-3.621.38-.6.336-1.249-.122-1.8-.583-.703-.369-.779 1.157-.412 2.478.596 2.503.632 2.283 3.187-.156 1.815.075 2.309 1.3 2.77.818.31 1.705.436 1.969.28s.48.071.48.503c0 .431.186.597.415.369.445-.445 2.785 1.957 2.785 2.86 0 .298.288.542.64.542s.64-.3.64-.666c0-.92-2.672-4.454-3.367-4.454-.31 0-.997-.432-1.525-.96-.853-.854-.84-.96.124-.96.865 0 .931-.185.33-.91-.583-.702-.57-1.206.052-2.204.681-1.09.623-1.5-.368-2.596-1.204-1.33-2.65-1.211-1.883.154.325.579.233.578-.395-.002-1.253-1.158-.29-2.938 1.314-2.429.84.267 1.766.027 2.516-.652 1.707-1.545 3.48-.993 3.728 1.163.113.986-.138 2.207-.559 2.714-.612.737-.557.921.274.921 1.536 0 1.348 3.914-.288 5.994-.73.928-1.018 1.686-.64 1.686s.686-.288.686-.64c0-1.057 1.885-.722 3.288.585 1.471 1.37 1.151 3.895-.494 3.895-.644 0-.836-.39-.582-1.19.216-.68-.031-1.528-.58-1.983-.822-.682-.945-.468-.87 1.51.052 1.39.408 2.303.899 2.303 1.488 0 1.749 2.571.411 4.055-1.305 1.448-3.352 5.315-3.352 6.333 0 .665-3.516 4.332-4.153 4.332-.227 0-.238-.551-.024-1.226.538-1.694-.515-2.165-1.46-.652-.553.886-.568 1.238-.053 1.238.405 0 .573.56.385 1.282-.587 2.245 1.39 2.618 4.78.9 1.674-.848 3.328-1.542 3.676-1.542s1.665-.7 2.928-1.557c2.295-1.558 7.6-2.634 10.608-2.153.924.149-.391.591-3.246 1.093-5.296.931-7.337 1.947-5.342 2.659.785.28.021.583-2.276.904-4.801.669-7.954 2.06-7.478 3.299.207.54.376 1.029.375 1.088 0 .274 15.357-.134 15.82-.42.89-.551 9.845 1.546 11.873 2.78 1.053.64 2.31 1.012 2.792.827.482-.185.876-.034.876.334 0 1.166-.923 1.304-2.568.384zm-34.552-12.506c0-.92-1.11-.656-1.499.356-.238.62-.048.81.572.571.51-.195.927-.613.927-.927zm0-1.494c0-.155-.288-.46-.64-.678s-.64-.09-.64.283c0 .372.288.677.64.677s.64-.127.64-.282zm3.655-.998c-.185-.704-.146-1.28.085-1.28.231 0 1.232-.7 2.225-1.554l1.805-1.552-1.485-.792c-1.35-.72-1.406-.695-.607.274 1.004 1.217.555 1.362-1.24.402-1.59-.85-1.574-2.013.042-3.178 1.368-.986 1.725-3.489.597-4.186-.95-.587-2.406 1.592-2.028 3.037.171.655-.164 1.717-.745 2.359-.95 1.05-.957 1.249-.066 1.989.894.742.894.97.001 2.332-.881 1.346-.883 1.51-.014 1.51.536 0 .975.432.975.96s.177.96.394.96c.217 0 .244-.576.06-1.28zm-2.385-3.077c-.008-.933-.095-.95-.63-.123-.81 1.254-.81 2.101 0 1.6.352-.217.636-.882.63-1.477zm8.125-3.683c.107-.33-.514-.928-1.38-1.33-1.24-.575-1.73-.543-2.308.154-.579.698-.415 1.01.78 1.487 1.697.677 2.62.579 2.908-.31zm-10.035-2.237c0-.332-.288-.603-.64-.603s-.64.45-.64.998c0 .549.288.82.64.602s.64-.666.64-.997zm2.88.677c.217-.352.09-.64-.283-.64-.372 0-.677.288-.677.64s.127.64.282.64c.155 0 .46-.288.678-.64zm-3.978-3.19c.186-.709.112-1.29-.164-1.29-.884 0-2.063 1.84-1.63 2.543.56.906 1.38.334 1.794-1.253zm4.62-.654c.22-.355-.064-.822-.63-1.04-1.225-.47-1.908.049-1.319 1.002.532.86 1.43.877 1.95.038zm3.838-3.836c-.218-.352-.739-.635-1.158-.63-.458.006-.38.258.198.63 1.229.795 1.45.795.96 0zm1.831-1.6c.203-.528.017-.964-.412-.97-.549-.006-.524-.171.085-.557.613-.388.277-.635-1.148-.844-2.574-.377-3.213.644-1.347 2.155 1.762 1.427 2.34 1.472 2.822.216zm-2.911-1.397c.462-.185 1.014-.162 1.226.05.213.213-.165.365-.84.337-.745-.03-.897-.182-.386-.387zm.76-2.71c0-.323.174-1.043.388-1.6.282-.736 0-1.013-1.028-1.013s-1.311.278-1.029 1.013c.214.557.389 1.277.389 1.6 0 .323.288.587.64.587s.64-.264.64-.587zm-41.637 36.063c-.647-.78-.644-1.121.016-1.742.642-.605.885-.598 1.115.03.163.443.559.642.88.443.901-.557.694.337-.31 1.342-.77.768-1.012.758-1.702-.073zm18.36-.435c-.711-2.657-.362-3.382.582-1.207 1.096 2.524 1.113 2.647.37 2.647-.311 0-.74-.648-.951-1.44zm3.993-2.24c.564-2.024 1.118-3.198 1.232-2.608.277 1.43-1.057 6.288-1.727 6.288-.291 0-.068-1.656.495-3.68zm-58.476 1.076c-1.056-.676-2.552-1.231-3.324-1.233-.773-.002-3.617-1.011-6.32-2.243-2.704-1.232-5.672-2.239-6.596-2.237-1.415.003-9.577-2.459-15.44-4.658-3.558-1.335-6.218-2.865-10.522-6.053-2.485-1.84-4.863-3.353-5.284-3.36-1.247-.02-10.434-4.616-10.434-5.22 0-.303-.854-.552-1.898-.552-1.083 0-3.074-.833-4.64-1.941-2.958-2.094-4.116-2.866-9.347-6.235-3.312-2.133-4.542-3.611-3.701-4.452.227-.226 1.63.226 3.119 1.005 2.276 1.19 2.426 1.376.941 1.167-2.342-.33-1.426.774 2.219 2.674 1.51.788 4.33 2.566 6.267 3.951 1.936 1.385 4.13 2.526 4.874 2.534.744.01 2.07.58 2.945 1.269 1.83 1.44 8.189 4.073 8.67 3.591.179-.178-.577-.836-1.678-1.463-1.908-1.086-2.623-2.1-1.48-2.1.292 0 2.236 1.523 4.32 3.385 7.496 6.696 12.63 9.816 19.168 11.647 2.101.588 5.041 1.623 6.534 2.299 1.492.676 3.673 1.229 4.847 1.229s4.417.985 7.207 2.189c2.79 1.204 6.08 2.378 7.313 2.608 1.232.231 3.104 1.117 4.16 1.968 2.29 1.848.87 2.019-1.92.231zm39.62.584c-.18-.289.841-1.67 2.267-3.068 3.49-3.42 3.563-5.494.088-2.506-1.378 1.184-2.53 2.512-2.56 2.95-.031.458-.664.697-1.494.562-.86-.14-1.404-.654-1.351-1.276.124-1.46-.75-1.297-2.123.398-.982 1.213-1.822 1.448-5.326 1.493-2.288.03-4.808.28-5.6.555-1.035.36-1.44.255-1.44-.374 0-.91 1.041-1.11 7.148-1.381 3.387-.15 6.292-1.563 6.292-3.06 0-.748-5.096-2.451-8.32-2.78-1.584-.162-2.97-.312-3.078-.333-.109-.022-.035-.303.163-.624.948-1.533-8.386-1.464-10.331.077-.517.41-2.081-.12-4.8-1.627-5.032-2.786-11.86-4.827-16.674-4.984-2.024-.066-3.68-.316-3.68-.556 0-1.14-6.075-6.41-8.182-7.098-1.308-.427-3.818-1.568-5.578-2.534-4.114-2.258-6.694-3.01-11.89-3.469-4.49-.396-7.277-1.045-9.274-2.159-.68-.38-3.11-1.525-5.401-2.545-4.535-2.02-5.737-3.119-6.715-6.13-.38-1.172-1.161-2.07-1.92-2.207-.704-.128-1.922-.995-2.705-1.928-1.187-1.412-1.529-1.539-2.044-.758-.405.616-.383 1.222.064 1.76.489.59.468.822-.075.822-.416 0-.564.311-.328.692.235.38 1.044.538 1.797.351.842-.209 1.988.164 2.97.968 1.302 1.064 1.362 1.227.32.874-.703-.24-2.122-.547-3.151-.684-1.03-.137-2.167-.544-2.528-.905-.932-.932-2.255-.813-3.372.304-.528.528-.655.96-.283.96s1.813.792 3.2 1.76c1.96 1.368 2.449 2.07 2.19 3.154-.255 1.074.115 1.624 1.615 2.4 1.07.553 2.392 1.006 2.938 1.006 1.427 0 1.222 1.12-.294 1.602-.794.252-2.3-.16-3.942-1.077-2.193-1.226-2.81-2.015-3.534-4.525-.49-1.7-1.26-3.04-1.744-3.04-1.314 0-4.253-1.668-3.778-2.143.23-.23.26-.417.069-.417-.192 0-1.383-.432-2.647-.96-1.998-.835-2.251-.838-1.94-.025.198.515.91 1.11 1.58 1.324.672.213 1.222.778 1.222 1.255 0 .71-.35.693-1.924-.092-2.57-1.282-3.489-3.022-2.174-4.114.824-.684 1.375-.622 3.19.356 3.633 1.956 3.12.68-.664-1.653-3.535-2.18-4.36-3.5-2.606-4.173.987-.378 4.818 1.04 4.818 1.785 0 .237-.36.58-.8.763-1.173.489 1.309 2.344 2.516 1.88.593-.227.7-.52.281-.778-.368-.228-.494-1.084-.28-1.902.357-1.365.665-1.466 3.691-1.215 2.79.231 3.916.763 7.262 3.431 2.177 1.737 3.962 3.556 3.964 4.042.008 1.27 2.543 5.196 3.356 5.196.377 0 2.586.899 4.908 1.997 5.273 2.494 9.337 3.747 12.18 3.756 3.482.011 10.393 1.965 12.842 3.631 1.232.838 3.366 1.83 4.742 2.202 1.569.425 3.859 1.972 6.138 4.146 2.08 1.984 4.222 3.468 5.005 3.468 3.524 0 12.334 2.28 15.772 4.08 3.595 1.884 4.226 2.001 10.88 2.017 6.978.018 9.238.486 15.543 3.22 2.23.968 2.394.876 1.509-.846-.315-.61-.884-1.903-1.267-2.871-.382-.968-1.133-1.76-1.669-1.76-1.32 0-1.229-1.664.17-3.063.628-.628 1.142-1.78 1.142-2.56 0-1.867-.252-1.787-1.087.343-.686 1.75-.693 1.752-1.244.32-.304-.792-.994-1.44-1.534-1.44-1.544 0-1.145-1.616.634-2.568 1.876-1.004 1.77-2.143-.224-2.436-1.691-.25-1.861-1.396-.208-1.396 1.083 0 1.131-.303.57-3.557-.683-3.969-.588-4.213 1.692-4.348 1.498-.088 1.583-.27 1.253-2.68-.375-2.733.473-4.07 2.79-4.405.634-.091 1.244-.782 1.355-1.535.22-1.482 2.948-3.955 4.364-3.955.48 0 .874-.234.874-.52 0-.285.587-1.149 1.305-1.92 1.232-1.322 1.847-1.4 11.104-1.4 5.878 0 10.666.302 11.966.755 1.962.684 7.55 5.611 7.676 6.769.265 2.421.253 3.993-.03 3.976-1.199-.072-2.582-2.006-2.582-3.61 0-3.432-5.573-6.61-11.593-6.61-3.152 0-3.77.183-3.786 1.12-.02 1.067-.061 1.067-.871 0-.628-.827-1.751-1.116-4.3-1.104-2.86.014-4.05.408-6.969 2.31-2.6 1.696-3.06 2.19-1.76 1.892.968-.221 1.76-.145 1.76.17s-.936.76-2.08.991c-1.534.31-1.843.567-1.178.981.496.309 1.335.395 1.865.192.627-.24.802-.108.5.38-.254.411-1.005.748-1.667.748s-1.41.333-1.661.739c-.308.499-.165.567.442.21.495-.29.35.097-.32.861l-1.22 1.39h2.645c2.112 0 2.855-.32 3.69-1.594 1.35-2.062 2.246-1.495 1.538.975-.303 1.057-.57 2.061-.593 2.23a3.8 3.8 0 0 1-.09.47c-.228.743-.707 2.994-.897 4.211-.128.821-.647 1.83-1.154 2.24-2.517 2.043-.856 5.669 2.654 5.795 1.54.056 1.917.3 1.594 1.033-.233.528-.538 1.968-.678 3.2-.27 2.364-.138 2.301 2.24-1.065.54-.763.74-.838.568-.215-.144.528-.465 1.68-.712 2.56-.254.905-.217 1.27.085.84.703-.998 3.976-2.228 4.715-1.771.319.196.405-.098.19-.655-.24-.626-.826-.873-1.535-.648-.886.281-1.247-.086-1.581-1.607-.26-1.18-.138-2.328.302-2.858.405-.487.646-1.411.537-2.054-.12-.699.186-1.167.761-1.167 1.047 0 .993 3.025-.061 3.413-.695.256-.785 1.43-.099 1.285.264-.055.988.12 1.608.392.637.278 1.5.186 1.98-.213.467-.388 1.04-.516 1.271-.285.232.232.421.055.421-.392 0-.473.667-.182 1.59.693 1.877 1.781 2.34 3.955.49 2.308-1.016-.906-4.266-1.068-5.08-.254-.693.693.578 1.66 2.703 2.06 1.242.233 2.217.8 2.217 1.288 0 .673-.377.73-1.642.25-2.386-.908-3.135-.794-2.198.335.438.528 1.194.96 1.679.96.484 0 .881.288.881.64 0 .791-1.079.843-1.554.075-.416-.674-3.55-.583-4.686.135-.44.278-1.046.353-1.347.167-.302-.186-.412.373-.246 1.242.166.87.574 1.581.906 1.581s.422.293.2.65c-.22.358-.67.485-.997.283s-.596-.064-.596.31c0 .978.995.832 1.92-.283 1.124-1.354 4.751-1.309 4.229.052-.214.557-.389 1.455-.389 1.995 0 .667-.41.875-1.28.648-.703-.184-1.44-.074-1.637.245-.654 1.058-2.133.602-4.345-1.34-1.203-1.056-2.509-1.92-2.902-1.92-.886 0-.953 2.978-.08 3.518.35.216.933.947 1.295 1.623.549 1.025.479 1.161-.421.816-.73-.28-.93-.171-.617.334.278.45.064.749-.535.749-.549 0-1.01-.36-1.023-.8-.014-.44-.411.064-.884 1.12-.472 1.056-1.46 2.277-2.197 2.714s-1.19 1.181-1.009 1.653c.356.926-1.474 1.226-2.026.333zm7.538-14.119c-.46-.459-.757-.497-.757-.096 0 .855.757 1.611 1.184 1.184.182-.182-.01-.671-.427-1.088zm2.952-1.752c-.883-1.414-1.504-1.238-.928.263.208.544.678.988 1.044.988.421 0 .379-.46-.116-1.25zm-2.283-.787c.302-.907-.891-5.642-1.423-5.642-.47 0-.696 5.157-.256 5.869.478.773 1.386.65 1.679-.227zm7.534-1.305c0-.349-.456-.46-1.013-.245-.556.213-1.293.388-1.637.388-.344 0-.465.261-.267.58.454.735 2.917.125 2.917-.723zm-17.28-5.617c0-.352-.305-.64-.678-.64-.373 0-.5.288-.282.64s.522.64.678.64c.155 0 .282-.288.282-.64zm-1.693-1.59c.226-.587.779-.79 1.454-.53.737.282.94.176.626-.331-.254-.412-.158-.749.215-.749s.678-.29.678-.646c0-.355-1.005.005-2.232.8-2.157 1.397-2.86 2.406-1.677 2.406.315 0 .736-.427.936-.95zm-.959-1.54c.634-.401.669-.673.13-1.007-.917-.566-2.598.027-2.598.917 0 .798 1.277.845 2.468.09zm-.102-3.132c-.926-.197-1.003-.427-.39-1.166.622-.75.569-.846-.286-.518-.584.224-1.05.088-1.05-.305 0-.39-.432-.709-.96-.709s-.96.463-.96 1.029c0 .685.346.895 1.037.63.776-.298.96-.1.727.786-.257.985-.028 1.126 1.363.841 1.25-.256 1.381-.404.519-.588zm5.986-4.618c1.39 0 2.528-.288 2.528-.64s-.432-.64-.96-.64-.96-.303-.96-.673c0-.75-4.801-.5-5.592.292-.269.268-.056.392.472.274.714-.158.917.28.792 1.707-.14 1.598-.054 1.732.512.8.463-.763 1.485-1.12 3.208-1.12zm4.448-2.24c.865-1.042.658-1.172-.908-.572-.557.214-1.012.646-1.012.96 0 .886 1.037.676 1.92-.388zm-9.28-.96c.217-.352.107-.64-.245-.64s-.818.288-1.035.64-.108.64.244.64.818-.288 1.036-.64zm-105.4-6.796c-.57-.57-1.356-.837-1.748-.595-1.042.643-.192 1.631 1.404 1.631 1.271 0 1.298-.081.344-1.036zm2.563-.724c-.136-.715-.904-1.185-2.127-1.301l-1.915-.18 1.6 1.286c1.98 1.592 2.718 1.651 2.442.195zm172.07 44.853c-.235-.235-.427-.724-.427-1.088 0-.401.298-.363.757.096.417.417.609.906.427 1.088-.182.182-.523.139-.757-.096zm-57.707-.853c-.218-.352-.09-.64.282-.64.373 0 .678.288.678.64s-.127.64-.283.64c-.155 0-.46-.288-.677-.64zm59.84.092c0-.262 1.8-1.125 4-1.916 2.199-.791 3.71-1.185 3.36-.875-1.037.913-7.36 3.312-7.36 2.79zm-62.08-1.052c0-.528.288-.96.64-.96s.64.432.64.96-.288.96-.64.96-.64-.432-.64-.96zm19.136-.16c-.035-.264-.177-1.738-.315-3.274-.217-2.42-.123-2.688.704-2.002.525.436.954 1.12.954 1.52 0 .4.576 1.087 1.28 1.527 1.5.937 1.686 2.069.34 2.069-.516 0-.797-.37-.624-.823.19-.492-.217-.863-1.011-.923-1.04-.078-1.242.17-.933 1.143.217.684.231 1.243.031 1.243s-.391-.216-.426-.48zm-64.193-1.26c-1.745-.447-7.552-4.105-7.15-4.506.184-.185.745.003 1.245.418.5.415 2.595 1.591 4.656 2.614 3.585 1.78 3.901 2.153 1.249 1.474zm52.53-.696c-.59-.652-1.073-1.522-1.073-1.935 0-1.071 1.446-.636 2.474.745 1.24 1.665-.01 2.727-1.401 1.19zm70.897-.075c.59-.954 6.237-2.554 8.67-2.455 1.348.054 3.961-.723 6.562-1.952 2.376-1.123 4.77-2.042 5.316-2.042 1.249 0 5.703-2.472 10.738-5.96 2.13-1.474 6.768-4.12 10.308-5.88 6.644-3.303 7.944-4.788 5.955-6.8-1.525-1.543-1.644-2.802-.41-4.326 1.023-1.262 1.261-1.331 1.595-.46.217.564.228 1.458.025 1.986-.202.528-.089.96.252.96.34 0 .62-.432.62-.96 0-.543.573-.96 1.318-.96.724 0 1.14.288.922.64-.626 1.012.717.744 1.6-.32.525-.634.559-.96.098-.96-.384 0-.532-.432-.33-.96.203-.528.04-.96-.362-.96-.401 0 .13-.841 1.18-1.869 1.25-1.22 2.344-1.755 3.158-1.542 1.906.499 3.936-.89 3.936-2.692 0-.873.374-1.577.838-1.577.46 0 1.396-.424 2.08-.942 1.105-.839.925-.852-1.638-.118-2.04.584-2.829 1.124-2.703 1.853.249 1.449-.84 1.937-1.783.8-.565-.682-.596-1.188-.109-1.775 1.26-1.517-.085-2.396-1.747-1.142-1.399 1.055-1.41 3.12-.014 2.256.328-.202.596-.063.596.31s-.54.678-1.202.678-1.56.432-1.998.96c-.89 1.071-3.84 1.317-3.84.32 0-.352.552-.64 1.228-.64 1.641 0 3.252-.652 3.252-1.315 0-.567-3.481.544-5.124 1.635-.53.352-1.737 1.678-2.682 2.947-1.263 1.696-2.79 2.698-5.756 3.777-2.221.808-4.925 1.994-6.008 2.637-1.084.642-5.47 1.878-9.746 2.748-6.34 1.288-8.92 2.18-13.968 4.83-3.406 1.787-7.293 4.244-8.638 5.459-1.345 1.215-3.101 2.349-3.902 2.52-.8.171-3.176.644-5.28 1.052-2.102.407-4.262.868-4.8 1.025-.537.157-.256-.126.624-.63s3.184-1.268 5.12-1.697c5.588-1.239 5.636-1.261 9.47-4.437 5.216-4.32 12.441-7.534 20.29-9.026 5.123-.973 7.692-1.77 11.52-3.57 1.76-.827 4.568-2.075 6.24-2.774 2.048-.855 3.466-1.99 4.343-3.476.905-1.534 2.32-2.639 4.64-3.623 1.835-.778 4.057-2.058 4.937-2.844 1.558-1.391 9.158-3.267 10.322-2.548.293.181 1.083.034 1.758-.327.895-.48 1.415-.428 1.927.189.88 1.06.288 1.688-1.596 1.688-.8 0-1.66.332-1.912.739-.3.486-.149.579.442.271.495-.257-.18.447-1.5 1.563-1.32 1.117-2.4 2.414-2.4 2.882 0 .469-.73 1.426-1.622 2.127-.892.702-1.35 1.444-1.017 1.65.694.428 4.193-1.335 5.938-2.992.65-.616 1.54-1.125 1.98-1.13.55-.007.509-.194-.13-.598-.51-.323-1.23-.42-1.6-.216-.461.256-.464.147-.01-.35.363-.397 1.635-.917 2.828-1.156 1.885-.377 2.111-.288 1.74.68-.235.613-.428 1.377-.428 1.697 0 .549-2.162 1.839-6.836 4.078-1.12.536-2.24 1.305-2.49 1.708-.248.403-.196.605.117.448.313-.157 1.505-.654 2.65-1.106 1.143-.451 2.08-1.08 2.08-1.398 0-.318.575-.577 1.28-.577 2.014 0 1.687 2.913-.48 4.277-.969.61-2.575 1.768-3.57 2.575-.995.807-2.362 1.468-3.038 1.468-.676 0-2.345 1.008-3.709 2.24-1.729 1.562-3.09 2.24-4.497 2.24-3.039 0-19.861 8.896-25.652 13.565-1.225.987-2.542 1.794-2.928 1.794-.385 0-3.027 1.008-5.87 2.24-3.477 1.507-6.185 2.25-8.273 2.268-1.707.016-4.256.443-5.664.95-3 1.082-3.73 1.16-3.23.351zm54.74-23.722c1.939-1.381 2.921-3.973 2.077-5.481-.431-.771-.87-.59-2.378.984-1.017 1.061-2.155 1.939-2.53 1.95-1.379.041-2.939 1.745-2.542 2.778.547 1.425 3.208 1.31 5.373-.231zm4.22-7.326c-.258-1.373-.799-2.281-1.36-2.281-1.14 0-1.174 1.158-.13 4.504.692 2.22.875 2.396 1.359 1.312.307-.689.366-2.28.13-3.535zm5.976.44c.147-.088.14-.288-.014-.442-.552-.553-4.412 1.739-4.412 2.62 0 .658.558.508 2.08-.558 1.144-.801 2.2-1.53 2.346-1.62zm-9.268-1.376c-.402-.402-1.544 1.224-1.528 2.175.006.352.43.085.943-.594.514-.678.777-1.39.585-1.581zm6.433-9.383c1.313-.549 2.233-1.151 2.046-1.339-.466-.465-4.917 1.187-4.917 1.825 0 .685.114.666 2.87-.486zm-89.295 39.373c1.218-1.042 2.586-1.895 3.04-1.895.453 0 .824-.288.824-.64s-.288-.64-.64-.64-.64-.32-.64-.71c0-.437.615-.555 1.605-.306.943.237 2.382.001 3.488-.57 1.036-.536 2.401-.963 3.035-.949.682.016.147.528-1.315 1.257-1.356.677-2.796 1.503-3.2 1.835-.403.332-2.461 1.484-4.573 2.559l-3.84 1.954zm-34.526-.455c.005-.264.289-.912.63-1.44.501-.776.622-.685.63.48.005.792-.278 1.44-.63 1.44s-.636-.216-.63-.48zm-71.431-2.88-1.22-1.44 1.44 1.22c1.354 1.145 1.732 1.66 1.22 1.66-.122 0-.77-.648-1.44-1.44zm68.367-2.52c.139-.418.595-.874 1.013-1.014.468-.156.611.137.372.76-.446 1.164-1.77 1.406-1.385.254zm-73.747-3.08c0-.704.12-1.28.267-1.28.147 0 .723-.175 1.28-.389.557-.213 1.013-.07 1.013.32s-.423.709-.94.709c-.573 0-.796.375-.572.96.203.528.05.96-.34.96s-.708-.576-.708-1.28zm162.56-8.076c.804-1.288 3.162-3.107 3.486-2.688.087.112-.85 1.063-2.08 2.113-1.632 1.39-2.013 1.547-1.407.575zm-98.556-2.116c0-.303.432-.717.96-.92.528-.202.96-.12.96.184 0 .303-.432.717-.96.92-.528.202-.96.12-.96-.184zm118.72-.688c.217-.352 1.026-.636 1.797-.63 1.14.008 1.223.126.443.63-1.261.815-2.744.815-2.24 0zm-107.52-.64c.217-.352.522-.64.677-.64.156 0 .283.288.283.64s-.305.64-.678.64c-.373 0-.5-.288-.282-.64zm93.76-.64c.528-.341 1.248-.62 1.6-.62s.208.279-.32.62-1.248.62-1.6.62-.208-.279.32-.62zm11.84 0c.217-.352.827-.64 1.355-.64s.782.288.565.64-.828.64-1.356.64-.782-.288-.564-.64zm-220.64-1.081c-.616-.161-1.12-.56-1.12-.886 0-.86.855-.73 2.277.347 1.245.941.935 1.086-1.157.539zm100.99-.755c-.583-1.835.749-4.772 1.954-4.31.552.213 2.132.386 3.511.386 2.833 0 3.054.454 1.24 2.546-1.011 1.166-1.34 1.272-1.628.524-.198-.515-.774-.937-1.282-.937-.744 0-.77.186-.132.96.681.827.532.895-1.082.493-1.648-.411-1.773-.347-1.042.534.693.834.665 1-.165 1-.547 0-1.166-.538-1.374-1.196zm15.447.076c.321-.914.235-.973-.468-.32-1.31 1.215-2.126.963-3.005-.929-1.065-2.294-.231-2.795 4.419-2.655 4.01.121 4.287.81 1.436 3.584-1.768 1.719-2.93 1.875-2.382.32zm104.85-.16c.217-.352.683-.64 1.035-.64s.462.288.245.64-.684.64-1.036.64-.462-.288-.244-.64zm-94.69-.592c-.45-.727.924-3.888 1.69-3.888.304 0 .125.827-.398 1.839-.523 1.011-.77 2.02-.55 2.24.22.22.226.4.012.4s-.553-.266-.754-.591zM67.71 76.857c0-.352.305-.64.677-.64.373 0 .5.288.283.64s-.523.64-.678.64c-.155 0-.282-.288-.282-.64zm-13.957-1.968c.126-.379.503-.688.837-.688s.711.31.837.688c.126.378-.25.688-.837.688s-.964-.31-.837-.688zm135.9-.548c-.203-.328-.076-.777.282-.998.358-.22.65.047.65.596 0 1.124-.384 1.29-.932.402zm-138.59-1.964c-.828-.535-.81-.622.122-.63.595-.005 1.26.278 1.478.63.5.81-.347.81-1.6 0zm137.75-2.56c-.54-.864-.572-1.28-.101-1.28.384 0 .576-.36.426-.8-.15-.44-.926-.705-1.723-.588-.916.134-1.293-.043-1.023-.48.63-1.019 2.63-.842 3.593.317.652.785.664 1.115.056 1.49-.429.266-.596.964-.37 1.552.558 1.456.114 1.346-.858-.211zm-11.59-1.09c-1.094-.435-3.455-2.751-2.8-2.747.265.002 1.345.711 2.4 1.577 1.936 1.587 2.012 1.81.4 1.17zm2.682-.587c-.552-1.44.21-1.756 1.703-.71l1.348.944-1.345.352c-.847.221-1.48.004-1.706-.586zm11.958-.077c0-1.613-1.228-2.726-3.008-2.726-.81 0-1.472-.288-1.472-.64 0-.831.847-.81 2.78.07 1.763.804 3.287 3.505 2.316 4.105-.338.21-.616-.155-.616-.81zm-11.52-3.366c0-.352.288-.64.64-.64s.64.288.64.64-.288.64-.64.64-.64-.288-.64-.64zm-4.32-1.721c.616-.161 1.624-.161 2.24 0 .616.16.112.292-1.12.292s-1.736-.131-1.12-.292z" fill="#ffffff"/><circle cx="180.95" cy="180.95" r="180.45" fill="none" stroke="#ffffff"/><path fill="none" stroke="#ffffff" d="M33.184 62.208h294.32v300H33.184z"/></svg>